<svg width="497" height="285" viewBox="0 0 497 285" fill="none" xmlns="http://www.w3.org/2000/svg">
<path d="M0 25C0 11.1929 11.1929 0 25 0H472C485.807 0 497 11.1929 497 25V260C497 273.807 485.807 285 472 285H24.9999C11.1928 285 0 273.807 0 260V25Z" fill="#FF8EBB"/>
<path d="M38.288 52.688H52.88C55.824 52.688 58.384 53.136 60.56 54.032C62.7787 54.928 64.5066 56.08 65.744 57.488C67.024 58.8533 68.048 60.5813 68.816 62.672C70.096 66.1707 70.736 70.4373 70.736 75.472C70.736 83.3227 68.816 89.296 64.976 93.392C62.0747 96.464 58.0853 98 53.008 98H38.288V52.688ZM48.784 60.624V90.064H52.816C55.504 90.064 57.296 88.8267 58.192 86.352C59.088 83.8347 59.5359 80.0587 59.5359 75.024C59.5359 69.9893 59.0026 66.3413 57.936 64.08C56.912 61.776 55.0347 60.624 52.304 60.624H48.784Z" fill="white"/>
<path d="M87.534 52.688V98H77.038V52.688H87.534Z" fill="white"/>
<path d="M115.685 52.368L127.909 98H117.348L114.789 86.928H104.997L102.372 98H92.0045L103.972 53.456L115.685 52.368ZM109.732 63.888L106.404 79.312H113.445L110.5 63.888H109.732Z" fill="white"/>
<path d="M145.601 52.688H160.193C163.137 52.688 165.697 53.136 167.872 54.032C170.091 54.928 171.819 56.08 173.056 57.488C174.336 58.8533 175.36 60.5813 176.128 62.672C177.408 66.1707 178.049 70.4373 178.049 75.472C178.049 83.3227 176.129 89.296 172.289 93.392C169.387 96.464 165.398 98 160.32 98H145.601V52.688ZM156.096 60.624V90.064H160.128C162.816 90.064 164.608 88.8267 165.504 86.352C166.4 83.8347 166.848 80.0587 166.848 75.024C166.848 69.9893 166.315 66.3413 165.248 64.08C164.224 61.776 162.347 60.624 159.617 60.624H156.096Z" fill="white"/>
<path d="M203.935 52.368L216.159 98H205.598L203.039 86.928H193.247L190.622 98H180.254L192.222 53.456L203.935 52.368ZM197.982 63.888L194.654 79.312H201.695L198.75 63.888H197.982Z" fill="white"/>
<path d="M233.973 51.92C242.677 51.92 247.435 55.952 248.245 64.016L238.518 65.552C237.878 61.6267 236 59.664 232.885 59.664C231.605 59.664 230.582 60.0267 229.814 60.752C229.088 61.4773 228.726 62.352 228.726 63.376C228.726 64.3573 228.875 65.1893 229.174 65.872C229.515 66.5547 230.112 67.2373 230.966 67.92C231.862 68.6027 232.565 69.1147 233.077 69.456C233.589 69.7547 234.571 70.288 236.021 71.056C237.472 71.824 238.709 72.5067 239.733 73.104C240.8 73.6587 241.824 74.256 242.805 74.896C243.787 75.536 244.853 76.368 246.005 77.392C248.139 79.3547 249.206 82.0853 249.206 85.584C249.206 89.04 247.712 92.112 244.726 94.8C241.739 97.4453 237.899 98.768 233.206 98.768C230.646 98.768 227.979 98.3413 225.206 97.488C222.475 96.6347 220.022 95.4613 217.846 93.968L221.622 86.992C225.803 89.3387 229.6 90.512 233.013 90.512C234.379 90.512 235.595 90.1493 236.661 89.424C237.771 88.6987 238.326 87.632 238.326 86.224C238.326 84.688 237.6 83.3867 236.149 82.32C234.443 81.0827 232.651 80.0373 230.773 79.184C229.109 78.5013 227.445 77.648 225.781 76.624C224.16 75.6 223.029 74.7893 222.389 74.192C221.792 73.552 221.152 72.784 220.469 71.888C219.147 70.096 218.486 67.856 218.486 65.168C218.486 61.328 219.957 58.1707 222.901 55.696C225.888 53.1787 229.579 51.92 233.973 51.92Z" fill="white"/>
<path d="M76.752 130.688L79.888 176H70.352L69.008 151.744L69.776 145.216H69.2L62.416 173.248L52.8799 173.824L45.7759 145.28H45.2L45.968 151.616L44.944 176H36.56L38.992 130.688H50.896L57.296 156.928L58.256 163.264H58.64L59.344 156.992L65.104 130.688H76.752Z" fill="white"/>
<path d="M105.935 130.368L118.159 176H107.598L105.039 164.928H95.2465L92.6225 176H82.2545L94.2225 131.456L105.935 130.368ZM99.9825 141.888L96.6545 157.312H103.695L100.75 141.888H99.9825ZM103.438 126.848C102.329 126.848 100.985 126.507 99.4065 125.824C97.8705 125.141 96.6758 124.8 95.8224 124.8C94.2438 124.8 92.5585 125.44 90.7665 126.72L88.7184 122.048C91.3211 119.488 94.0305 118.208 96.8465 118.208C97.9985 118.208 99.3425 118.549 100.878 119.232C102.414 119.915 103.694 120.256 104.718 120.256C105.785 120.256 107.428 119.595 109.646 118.272L111.503 123.008C108.601 125.568 105.913 126.848 103.438 126.848Z" fill="white"/>
<path d="M122.726 130.688H150.373L149.221 138.688H133.221V148.992H147.685L146.597 156.8H133.221V168.064H150.693L149.542 176H122.726V130.688Z" fill="white"/>
<path d="M169.411 129.92C178.115 129.92 182.872 133.952 183.683 142.016L173.955 143.552C173.315 139.627 171.438 137.664 168.323 137.664C167.043 137.664 166.019 138.027 165.251 138.752C164.526 139.477 164.163 140.352 164.163 141.376C164.163 142.357 164.312 143.189 164.611 143.872C164.952 144.555 165.55 145.237 166.403 145.92C167.299 146.603 168.003 147.115 168.515 147.456C169.027 147.755 170.008 148.288 171.459 149.056C172.91 149.824 174.147 150.507 175.171 151.104C176.238 151.659 177.262 152.256 178.243 152.896C179.224 153.536 180.291 154.368 181.443 155.392C183.576 157.355 184.643 160.085 184.643 163.584C184.643 167.04 183.15 170.112 180.163 172.8C177.176 175.445 173.336 176.768 168.643 176.768C166.083 176.768 163.416 176.341 160.643 175.488C157.912 174.635 155.459 173.461 153.283 171.968L157.059 164.992C161.24 167.339 165.038 168.512 168.451 168.512C169.816 168.512 171.032 168.149 172.099 167.424C173.208 166.699 173.763 165.632 173.763 164.224C173.763 162.688 173.038 161.387 171.587 160.32C169.88 159.083 168.088 158.037 166.211 157.184C164.547 156.501 162.883 155.648 161.219 154.624C159.598 153.6 158.467 152.789 157.827 152.192C157.23 151.552 156.59 150.784 155.907 149.888C154.584 148.096 153.923 145.856 153.923 143.168C153.923 139.328 155.395 136.171 158.339 133.696C161.326 131.179 165.016 129.92 169.411 129.92Z" fill="white"/>
<path fill-rule="evenodd" clip-rule="evenodd" d="M456.734 101.989C452.118 96.4139 446.696 89.8675 448.682 81.0959C450.874 71.4123 463.381 67.0233 470.234 78.3629L463.473 108.23C461.482 107.78 459.838 105.796 458.14 103.695C457.685 103.137 457.216 102.568 456.734 101.989Z" fill="white"/>
<path d="M470.239 106.434C477.144 103.144 486.316 99.7943 488.507 90.1126C490.699 80.431 481.302 71.08 470.234 78.3629L463.473 108.23C465.464 108.681 467.803 107.598 470.239 106.434Z" fill="white"/>
<path fill-rule="evenodd" clip-rule="evenodd" d="M436.102 143.762C430.235 140.794 423.344 137.309 421.815 129.283C420.127 120.423 428.951 112.23 438.773 119.188L443.979 146.515C442.157 146.862 440.067 145.806 437.892 144.673C437.31 144.373 436.713 144.07 436.102 143.762Z" fill="white"/>
<path d="M448.962 142.564C453.519 137.319 459.942 131.202 458.255 122.343C456.567 113.485 445.349 109.106 438.773 119.188L443.979 146.515C445.801 146.168 447.355 144.418 448.962 142.564Z" fill="white"/>
<path d="M266 63C266 49.7452 276.745 39 290 39L392 39C405.255 39 416 49.7452 416 63V228C416 241.255 405.255 252 392 252H290C276.745 252 266 241.255 266 228V63Z" fill="white" fill-opacity="0.33"/>
<path fill-rule="evenodd" clip-rule="evenodd" d="M439.735 48.9888C435.119 43.4139 429.697 36.8675 431.682 28.0959C433.874 18.4122 446.381 14.0233 453.234 25.3629L446.473 55.2303C444.482 54.7796 442.838 52.7955 441.141 50.6948C440.685 50.1367 440.216 49.568 439.735 48.9888Z" fill="white"/>
<path d="M453.24 53.4335C460.145 50.1442 469.316 46.7943 471.508 37.1126C473.699 27.431 464.302 18.08 453.234 25.3629L446.473 55.2303C448.465 55.681 450.803 54.5985 453.24 53.4335Z" fill="white"/>
</svg>
