<svg width="172" height="39" viewBox="0 0 172 39" fill="none" xmlns="http://www.w3.org/2000/svg">
<path d="M0 19.5C2.06306e-07 8.73045 8.73045 -2.06306e-07 19.5 0L152.5 2.5478e-06C163.27 2.75411e-06 172 8.73045 172 19.5C172 30.2696 163.27 39 152.5 39L19.5 39C8.73045 39 -2.06306e-07 30.2695 0 19.5Z" fill="white" fill-opacity="0.42"/>
<path d="M55.0532 20.84C55.0532 17.96 55.6292 15.728 56.7812 14.144C57.9332 12.544 59.6532 11.744 61.9412 11.744C64.2772 11.744 65.9572 12.552 66.9812 14.168C67.7652 15.4 68.2132 16.936 68.3252 18.776C68.3412 19.208 68.3492 19.68 68.3492 20.192C68.3492 23.04 67.7812 25.264 66.6452 26.864C65.5252 28.448 63.8452 29.248 61.6052 29.264V29.504L67.8692 30.728L66.7412 33.44L59.0852 31.4L59.7812 29.096C56.6292 28.456 55.0532 25.704 55.0532 20.84ZM61.9172 26.216C62.8292 26.216 63.4292 25.784 63.7172 24.92C64.0052 24.04 64.1492 22.56 64.1492 20.48C64.1492 18.4 63.9812 16.936 63.6452 16.088C63.3252 15.224 62.6612 14.792 61.6532 14.792C60.6452 14.792 59.9892 15.232 59.6852 16.112C59.3972 16.976 59.2532 18.504 59.2532 20.696C59.2532 23.128 59.4772 24.664 59.9252 25.304C60.3572 25.912 61.0212 26.216 61.9172 26.216Z" fill="#FF3083"/>
<path d="M82.6732 12.008V24.992L82.9372 28.784L80.0813 29.168L79.6012 27.776L79.4812 27.8C78.4572 28.792 77.1932 29.288 75.6892 29.288C74.2012 29.288 73.0013 28.896 72.0892 28.112C71.1772 27.328 70.7213 26.144 70.7213 24.56V12.008H74.6572V24.128C74.6572 25.584 75.3613 26.312 76.7692 26.312C77.6492 26.312 78.3053 25.984 78.7373 25.328V12.008H82.6732Z" fill="#FF3083"/>
<path d="M85.8893 12.008H96.2572L95.8252 15.008H89.8252V18.872H95.2493L94.8412 21.8H89.8252V26.024H96.3773L95.9453 29H85.8893V12.008Z" fill="#FF3083"/>
<path d="M98.4283 12.008H104.788C108.132 12.008 109.804 13.616 109.804 16.832C109.804 19.168 108.764 20.792 106.684 21.704L110.38 29H106.156L103.372 22.64H102.292V29H98.4283V12.008ZM102.34 14.888V19.712H103.468C104.892 19.712 105.604 18.856 105.604 17.144C105.604 16.408 105.436 15.848 105.1 15.464C104.78 15.08 104.22 14.888 103.42 14.888H102.34Z" fill="#FF3083"/>
<path d="M118.04 14.792C117.144 14.792 116.552 15.232 116.264 16.112C115.976 16.976 115.832 18.456 115.832 20.552C115.832 22.632 115.992 24.096 116.312 24.944C116.632 25.792 117.296 26.216 118.304 26.216C119.328 26.216 119.984 25.784 120.272 24.92C120.56 24.056 120.704 22.52 120.704 20.312C120.704 17.88 120.48 16.344 120.032 15.704C119.6 15.096 118.936 14.792 118.04 14.792ZM118.496 11.72C122.784 11.72 124.928 14.544 124.928 20.192C124.928 23.072 124.352 25.312 123.2 26.912C122.048 28.496 120.328 29.288 118.04 29.288C113.752 29.288 111.608 26.472 111.608 20.84C111.608 17.96 112.184 15.72 113.336 14.12C114.488 12.52 116.208 11.72 118.496 11.72Z" fill="#FF3083"/>
</svg>
