<svg width="26" height="32" viewBox="0 0 26 32" fill="none" xmlns="http://www.w3.org/2000/svg">
<path d="M12.5793 32C11.7787 32 11.0955 31.7244 10.5298 31.1732C9.96407 30.6232 9.68121 29.9618 9.68121 29.189H15.4881C15.4881 29.9665 15.2035 30.6296 14.6342 31.1785C14.0637 31.7262 13.3787 32 12.5793 32ZM0 27.4467V25.7062H2.90526V11.9158C2.90526 9.64148 3.64836 7.64159 5.13455 5.91613C6.62074 4.19066 8.50484 3.11558 10.7869 2.69089V1.74055C10.7869 1.25668 10.9613 0.845907 11.31 0.508241C11.6588 0.169414 12.0825 0 12.5811 0C13.0797 0 13.5046 0.169414 13.8557 0.508241C14.2069 0.847067 14.3825 1.25784 14.3825 1.74055V1.87109C14.1224 2.26445 13.8947 2.66072 13.6993 3.05989C13.504 3.45905 13.3511 3.88375 13.2409 4.33397L12.9209 4.29916C12.8166 4.28987 12.7045 4.28523 12.5847 4.28523C10.3997 4.28523 8.5396 5.02787 7.00427 6.51314C5.46894 7.99841 4.70187 9.79929 4.70307 11.9158V25.7062H20.4681V15.1271C20.7533 15.1793 21.0476 15.2205 21.3508 15.2507C21.654 15.2809 21.9585 15.2849 22.2641 15.2629V25.7062H25.1694V27.4467H0ZM21.509 11.1465C20.2613 11.1465 19.1994 10.7235 18.3233 9.87762C17.4472 9.03171 17.0097 8.00537 17.0109 6.79859C17.0121 5.59181 17.4484 4.56372 18.3197 3.71433C19.191 2.86494 20.2517 2.44141 21.5018 2.44373C22.7519 2.44605 23.8126 2.86843 24.6839 3.71085C25.5553 4.55328 25.9939 5.5802 25.9999 6.79162C26.0059 8.00305 25.5691 9.03055 24.6893 9.87414C23.8096 10.7177 22.7489 11.1413 21.5072 11.1447" fill="#257D6B"/>
</svg>
