<svg
  viewBox="0 0 36 36"
  fill="none"
  xmlns="http://www.w3.org/2000/svg"
>
  <path
    d="M9 28.5V15C9 12.6131 9.94821 10.3239 11.636 8.63604C13.3239 6.94821 15.6131 6 18 6C20.3869 6 22.6761 6.94821 24.364 8.63604C26.0518 10.3239 27 12.6131 27 15V28.5M9 28.5H27M9 28.5H6M27 28.5H30M16.5 33H19.5"
    stroke="#257D6B"
    stroke-width="2.5"
    stroke-linecap="round"
    stroke-linejoin="round"
  />
  <path
    d="M18 6C18.8284 6 19.5 5.32843 19.5 4.5C19.5 3.67157 18.8284 3 18 3C17.1716 3 16.5 3.67157 16.5 4.5C16.5 5.32843 17.1716 6 18 6Z"
    stroke="#257D6B"
    stroke-width="2.5"
  />
  <circle cx="26.5" cy="10.5" r="4.5" fill="#FEA025" fill-opacity="0.89" />
</svg>
