<svg width="20" height="20" viewBox="0 0 20 20" fill="none" xmlns="http://www.w3.org/2000/svg">
<path d="M18 10.0001C18 12.1218 17.1571 14.1566 15.6569 15.6569C14.1566 17.1572 12.1217 18.0001 10 18.0001C7.87827 18.0001 5.84344 17.1572 4.34315 15.6569C2.84285 14.1566 2 12.1218 2 10.0001C2 7.87833 2.84285 5.8435 4.34315 4.3432C5.84344 2.84291 7.87827 2.00006 10 2.00006C10.76 2.00006 11.5 2.11006 12.2 2.31006L13.77 0.740059C12.5745 0.247067 11.2932 -0.00443147 10 5.90898e-05C8.68678 5.90898e-05 7.38642 0.258717 6.17317 0.761264C4.95991 1.26381 3.85752 2.00041 2.92893 2.92899C1.05357 4.80436 0 7.34789 0 10.0001C0 12.6522 1.05357 15.1958 2.92893 17.0711C3.85752 17.9997 4.95991 18.7363 6.17317 19.2389C7.38642 19.7414 8.68678 20.0001 10 20.0001C12.6522 20.0001 15.1957 18.9465 17.0711 17.0711C18.9464 15.1958 20 12.6522 20 10.0001M5.91 8.08006L4.5 9.50006L9 14.0001L19 4.00006L17.59 2.58006L9 11.1701L5.91 8.08006Z" fill="#288E5B" fill-opacity="0.83"/>
</svg>
