<svg
  viewBox="0 0 24 24"
  fill="none"
  xmlns="http://www.w3.org/2000/svg"
>
  <g clip-path="url(#clip0_87_158)">
    <path
      d="M23.8952 11.625C23.8086 11.3377 23.6543 11.0753 23.4452 10.86C23.2858 10.6877 23.081 10.5639 22.8542
      10.503C22.9652 10.6785 23.0657 10.881 23.1407 11.097C23.2257 11.318 23.2772 11.5515 23.2952 11.7975C23.3203 
      12.0088 23.3203 12.2223 23.2952 12.4335C23.2486 12.2769 23.1766 12.129 23.0822 11.9955C22.8961 11.7448 22.648 11.5468 22.3622 11.421C22.0453 11.2791 21.6872 11.259 21.3564 11.3647C21.0256 11.4705 20.7455 11.6946 20.5697 11.994C20.4947 12.117 20.4347 12.25 20.3897 12.393C18.6167 9.44103 15.4262 7.48653 11.7782 7.48653C11.5922 7.48653 11.4077 7.49153 11.2247 7.50153C10.0929 7.50332 8.96682 7.66132 7.87823 7.97103C7.78523 7.32003 6.93023 6.00003 3.00023 6.00003L4.20023 9.76504C3.44548 10.3748 2.81112 11.1201 2.32973 11.9625L0.000233061 12C0.000233061 12 -0.254767 18 1.50023 18H2.31023C2.86249 18.9341 3.60014 19.7453 4.47773 20.3835L4.50023 24H6.12023C8.08523 24 9.00023 24 9.00023 22.875V22.29C10.5134 22.5689 12.0651 22.5648 13.5767 22.278L13.5002 22.875C13.5002 24 14.4302 24 16.4102 24H18.0002V20.415C19.4058 19.4389 20.4178 17.9941 20.8547 16.3395C20.9402 16.299 21.0257 16.3035 21.1127 16.3035C21.1997 16.3035 21.2852 16.299 21.3707 16.2885C21.7472 16.2195 22.0907 16.0725 22.3892 15.864C22.7927 15.5786 23.1014 15.179 23.2757 14.7165C23.3177 14.5765 23.3492 14.4305 23.3702 14.2785L23.3717 14.2635C23.7032 13.8705 23.9297 13.3785 24.0002 12.837C24.0602 12.4232 24.0232 12.0011 23.8922 11.604L23.8952 11.625ZM5.26523 11.625C5.5636 11.625 5.84975 11.7436 6.06073 11.9545C6.27171 12.1655 6.39023 12.4517 6.39023 12.75C6.39023 13.0484 6.27171 13.3346 6.06073 13.5455C5.84975 13.7565 5.5636 13.875 5.26523 13.875C4.96686 13.875 4.68072 13.7565 4.46974 13.5455C4.25876 13.3346 4.14023 13.0484 4.14023 12.75C4.14023 12.4517 4.25876 12.1655 4.46974 11.9545C4.68072 11.7436 4.96686 11.625 5.26523 11.625ZM8.82023 10.5C8.65086 10.555 8.46747 10.5479 8.30285 10.48C8.13823 10.4121 8.00314 10.2879 7.92173 10.1295C7.89622 10.0508 7.88769 9.96761 7.8967 9.88537C7.90572 9.80313 7.93208 9.72373 7.97404 9.65242C8.016 9.58112 8.07261 9.51952 8.14013 9.47171C8.20765 9.42389 8.28454 9.39094 8.36573 9.37503C9.35224 9.13809 10.3648 9.0272 11.3792 9.04503L11.5307 9.04353C12.5407 9.04553 13.5152 9.16153 14.4542 9.39153C14.6432 9.42753 14.8472 9.66453 14.8472 9.94953C14.8468 10.0101 14.8372 10.0703 14.8187 10.128C14.7665 10.2255 14.6925 10.3096 14.6025 10.3739C14.5125 10.4381 14.4089 10.4808 14.2997 10.4985H14.0702C13.2323 10.2968 12.3731 10.1961 11.5112 10.1985H11.3777C10.4702 10.1985 9.58823 10.308 8.74373 10.515L8.82023 10.5ZM21.8702 14.895C21.6669 15.0407 21.4355 15.1423 21.1907 15.1935L21.0002 15.195V14.535C21.2477 14.7225 21.5612 14.835 21.9002 14.835H21.9317L21.8702 14.895ZM21.9902 13.875C21.8508 13.8946 21.7088 13.869 21.5849 13.8021C21.461 13.7352 21.3618 13.6304 21.3017 13.503C21.2321 13.3723 21.1958 13.2264 21.1961 13.0783C21.1963 12.9302 21.2331 12.7845 21.3032 12.654C21.3741 12.5548 21.4792 12.4852 21.5982 12.4586C21.7172 12.4321 21.8419 12.4504 21.9482 12.51C22.0842 12.5622 22.2011 12.6544 22.2835 12.7743C22.366 12.8943 22.4102 13.0364 22.4102 13.182C22.439 13.3901 22.4385 13.6026 22.4087 13.8105C22.2694 13.8369 22.1275 13.848 21.9857 13.8435L21.9902 13.875ZM12.0002 4.50003H10.5002V4.24503H10.8752V2.61003H10.5002L11.3252 1.78503H11.6252V4.24503H12.0002V4.50003Z"
      fill="#FEA025"
      fill-opacity="0.9"
    />
    <path
      d="M11.25 1.125C11.5456 1.1251 11.8382 1.18341 12.1113 1.29662C12.3843 1.40982 12.6324 1.57569 12.8413 
      1.78476C13.0502 1.99383 13.2159 2.24201 13.329 2.51512C13.442 2.78823 13.5001 3.08093 13.5 3.3765C13.4999 3.67207 13.4416 3.96473 13.3284 4.23777C13.2152 4.5108 13.0493 4.75887 12.8402 4.9678C12.6312 5.17673 12.383 5.34244 12.1099 5.45546C11.8368 5.56848 11.5441 5.6266 11.2485 5.6265C10.6516 5.6263 10.0792 5.38898 9.6572 4.96674C9.23524 4.5445 8.9983 3.97194 8.9985 3.375C8.9987 2.77806 9.23602 2.20566 9.65826 1.7837C10.0805 1.36174 10.6531 1.1248 11.25 1.125ZM11.25 0C10.3549 0 9.49645 0.355579 8.86351 0.988515C8.23058 1.62145 7.875 2.47989 7.875 3.375C7.875 4.27011 8.23058 5.12855 8.86351 5.76149C9.49645 6.39442 10.3549 6.75 11.25 6.75C12.1451 6.75 13.0035 6.39442 13.6365 5.76149C14.2694 5.12855 14.625 4.27011 14.625 3.375C14.625 2.47989 14.2694 1.62145 13.6365 0.988515C13.0035 0.355579 12.1451 0 11.25 0Z"
      fill="#FEA025"
      fill-opacity="0.9"
    />
  </g>
  <defs>
    <clipPath id="clip0_87_158">
      <rect width="24" height="24" fill="white" />
    </clipPath>
  </defs>
</svg>