<svg width="24" height="24" viewBox="0 0 24 24" fill="none" xmlns="http://www.w3.org/2000/svg">
<path d="M18.0002 7C18.0002 7.262 17.9835 7.52 17.9502 7.774C19.2608 8.51013 20.2474 9.71141 20.7147 11.1401C21.1819 12.5688 21.0959 14.1209 20.4736 15.4893C19.8513 16.8576 18.738 17.9425 17.3541 18.5293C15.9702 19.1161 14.4164 19.162 13.0002 18.658V22H11.0002V18.4C9.8474 18.9889 8.52381 19.1523 7.26238 18.8615C6.00095 18.5707 4.88253 17.8442 4.10397 16.81C3.3254 15.7758 2.93659 14.5001 3.00595 13.2074C3.07532 11.9147 3.59842 10.688 4.4832 9.743C4.87397 10.8128 5.48868 11.7869 6.2862 12.6L7.7142 11.2C6.61526 10.0782 5.99989 8.57035 6.0002 7C6.0002 5.4087 6.63234 3.88258 7.75756 2.75736C8.88278 1.63214 10.4089 1 12.0002 1C13.5915 1 15.1176 1.63214 16.2428 2.75736C17.3681 3.88258 18.0002 5.4087 18.0002 7Z" fill="#288E5B" fill-opacity="0.88"/>
</svg>
