<svg
  viewBox="0 0 36 36"
  fill="none"
  xmlns="http://www.w3.org/2000/svg"
>
  <path
    d="M18 0C8.05886 0 0 8.05886 0 18C0 27.9411 8.05886 36 18 36C27.9411 36 36 27.9411 36 18C36 8.05886 27.9411 0 18 0ZM1.71429 18C1.71431 15.3408 2.3655 12.722 3.61098 10.3725C4.85646 8.02298 6.65833 6.01419 8.85917 4.52163C11.06 3.02906 13.5929 2.09813 16.2365 1.81017C18.88 1.52221 21.5539 1.88597 24.0245 2.86969C26.4951 3.8534 28.6872 5.42713 30.4093 7.45339C32.1314 9.47965 33.3312 11.8968 33.9037 14.4936C34.4763 17.0905 34.4042 19.788 33.6939 22.3506C32.9835 24.9132 31.6564 27.2629 29.8286 29.1943C29.5478 27.6581 28.821 26.2385 27.7389 25.1126C26.4651 23.7857 24.8606 23.0074 23.4514 22.5686C22.548 22.2874 21.6737 22.608 21.0686 23.0143C20.412 23.4583 19.332 24 18 24C16.668 24 15.588 23.4583 14.9314 23.016C14.3263 22.6063 13.452 22.2874 12.5486 22.5686C11.1394 23.0074 9.53486 23.7857 8.26114 25.1126C7.17867 26.2378 6.4513 27.6568 6.16971 29.1926C3.30405 26.1712 1.70898 22.1642 1.71429 18ZM7.72286 30.6343C7.81886 28.68 8.53886 27.2966 9.49714 26.3006C10.5086 25.2463 11.8286 24.588 13.0594 24.204C13.2789 24.1354 13.6063 24.1886 13.9731 24.4371C14.7909 24.9891 16.2051 25.7143 18 25.7143C19.7949 25.7143 21.2091 24.9891 22.0269 24.4371C22.3937 24.1886 22.7211 24.1354 22.9406 24.204C24.1731 24.588 25.4897 25.2463 26.5029 26.3006C27.4611 27.2949 28.1811 28.6817 28.2771 30.6343C25.3757 33.0014 21.7445 34.2916 18 34.2857C14.2555 34.2916 10.6243 33.0014 7.72286 30.6343ZM13.7143 14.5714C13.7143 12.1971 15.5657 10.2857 18 10.2857C20.4343 10.2857 22.2857 12.1971 22.2857 14.5714C22.2857 16.9457 20.4343 18.8571 18 18.8571C15.5657 18.8571 13.7143 16.9474 13.7143 14.5714ZM18 8.57143C17.2102 8.56457 16.4269 8.71508 15.6958 9.01418C14.9648 9.31328 14.3006 9.75498 13.7421 10.3135C13.1835 10.872 12.7419 11.5362 12.4428 12.2672C12.1437 12.9983 11.9931 13.7816 12 14.5714C12 17.8766 14.604 20.5714 18 20.5714C21.396 20.5714 24 17.8766 24 14.5714C24 11.2663 21.396 8.57143 18 8.57143Z"
    fill="#257D6B"
  />
</svg>