<svg
  viewBox="0 0 24 24"
  fill="none"
  xmlns="http://www.w3.org/2000/svg"
>
  <path
    d="M9.14585 7.07295C9.35934 6.41187 9.79571 5.8454 10.3804 5.4703C10.9652 5.0952 11.662 4.93474 12.3519 5.01631C13.0418 5.09788 13.682 5.41644 14.1631 5.91756C14.6442 6.41869 14.9364 7.07131 14.9899 7.76395C15.0224 8.17646 14.9693 8.59125 14.8338 8.98223C14.6983 9.37322 14.4834 9.73194 14.2026 10.0359C13.9218 10.3398 13.5811 10.5823 13.202 10.7482C12.8229 10.9142 12.4136 10.9999 11.9999 11V12M12.0499 15V15.1H11.9499V15H12.0499ZM13.2459 1.45895L14.4669 2.49895C14.7749 2.76095 15.1569 2.91895 15.5589 2.95195L17.1589 3.07995C17.6136 3.11626 18.0406 3.31333 18.3633 3.63583C18.686 3.95833 18.8833 4.3852 18.9199 4.83995L19.0469 6.43995C19.0799 6.84295 19.2389 7.22595 19.5009 7.53295L20.5409 8.75295C20.8373 9.10044 21.0001 9.54222 21.0001 9.99895C21.0001 10.4557 20.8373 10.8975 20.5409 11.245L19.5009 12.466C19.2389 12.774 19.0799 13.156 19.0479 13.559L18.9199 15.159C18.8835 15.6137 18.6865 16.0407 18.364 16.3634C18.0415 16.6861 17.6146 16.8834 17.1599 16.92L15.5599 17.048C15.157 17.0798 14.7745 17.238 14.4669 17.5L13.2459 18.54C12.8984 18.8364 12.4566 18.9992 11.9999 18.9992C11.5431 18.9992 11.1013 18.8364 10.7539 18.54L9.53385 17.5C9.22589 17.2378 8.84302 17.0796 8.43985 17.048L6.83985 16.92C6.38495 16.8833 5.95795 16.6859 5.63543 16.363C5.3129 16.0401 5.11594 15.6129 5.07985 15.158L4.95185 13.559C4.91947 13.1564 4.76095 12.7742 4.49885 12.467L3.45885 11.245C3.16298 10.8976 3.00049 10.4562 3.00049 9.99995C3.00049 9.54367 3.16298 9.1023 3.45885 8.75495L4.49885 7.53295C4.76185 7.22495 4.91885 6.84295 4.95085 6.43995L5.07885 4.84095C5.11526 4.38571 5.31275 3.95835 5.63587 3.6356C5.95899 3.31285 6.38657 3.11584 6.84185 3.07995L8.43985 2.95295C8.84279 2.92077 9.22529 2.76224 9.53285 2.49995L10.7539 1.45995C11.1013 1.16355 11.5431 1.00073 11.9999 1.00073C12.4566 1.00073 12.8984 1.16255 13.2459 1.45895Z"
    stroke="#5BA045"
    stroke-width="2"
    stroke-linecap="round"
    stroke-linejoin="round"
  />
</svg>