<svg width="75" height="75" viewBox="0 0 75 75" fill="none" xmlns="http://www.w3.org/2000/svg">
<path d="M24.7399 24.3353L24.9847 50.136C24.9929 51.1546 25.2894 52.15 25.8399 53.0071C26.3903 53.8642 27.1723 54.5479 28.0952 54.979C29.1901 55.4836 30.4048 55.6704 31.6007 55.5181C32.7967 55.3659 33.9259 54.8808 34.8595 54.1181L50.3646 41.0694C50.9439 40.5576 51.4065 39.9273 51.7209 39.2211C52.0353 38.5149 52.1942 37.7494 52.1868 36.9764C52.1795 36.2034 52.0061 35.441 51.6783 34.7409C51.3506 34.0408 50.8762 33.4193 50.2873 32.9186L34.5374 20.1666C33.5894 19.4217 32.4512 18.9581 31.2526 18.8286C30.054 18.6991 28.8431 18.9089 27.7579 19.4341C26.8433 19.8827 26.0745 20.5811 25.5404 21.4485C25.0063 22.3158 24.7288 23.3167 24.7399 24.3353Z" fill="#3F9A6C"/>
</svg>
