<svg width="74" height="74" viewBox="0 0 74 74" fill="none" xmlns="http://www.w3.org/2000/svg">
<path d="M48.8891 23.9243L49.1321 49.534C49.1431 50.545 48.8677 51.5385 48.3375 52.3995C47.8074 53.2604 47.0442 53.9537 46.1364 54.3989C45.0593 54.9202 43.8574 55.1285 42.6676 55C41.4778 54.8714 40.3481 54.4113 39.4072 53.6719L23.7739 41.0142C23.1893 40.5172 22.7184 39.9004 22.3931 39.2054C22.0677 38.5105 21.8956 37.7538 21.8883 36.9865C21.881 36.2193 22.0388 35.4594 22.3509 34.7584C22.6629 34.0575 23.1221 33.4318 23.6971 32.9238L39.0874 19.9717C40.0141 19.2146 41.1349 18.7331 42.322 18.582C43.5091 18.4309 44.7148 18.6164 45.8017 19.1172C46.7177 19.5451 47.4939 20.2237 48.0403 21.0744C48.5867 21.9252 48.881 22.9133 48.8891 23.9243Z" fill="#3F9A6C"/>
</svg>
