<svg viewBox="0 0 24 24" fill="none" xmlns="http://www.w3.org/2000/svg">          
  <path d="M13.5066 21.75C13.5066 21.75 18.1651 19.95 19.6916 17.4845C21.2181 15.019 21.1276 10.1995 21.1276 
  10.1995C21.0685 9.91059 20.9259 9.64542 20.7175 9.43688C20.509 9.22835 20.2439 9.08564 19.9551 9.02647C19.0311
  8.86647 17.6376 8.65447 17.6376 8.65447C17.5822 8.41241 17.448 8.19561 17.2561 8.03813C17.0641 7.88064 16.8253
  7.79142 16.5771 7.78447C14.8989 7.52857 13.1966 7.46867 11.5046 7.60597C11.3041 7.64509 11.1176 7.73643 10.9638 7.87075C10.81 8.00508 10.6943 8.17763 10.6286 8.37097L9.66157 8.45097C8.92832 8.45044 8.19872 8.55397 7.49457 8.75847C7.34148 8.8619 7.21557 9.0007 7.12749 9.1631C7.03941 9.32551 6.99176 9.50674 6.98857 9.69147C6.90457 10.7135 6.81607 13.6255 6.81607 13.6255C6.82059 14.8106 7.18808 15.966 7.86907 16.936C9.02157 18.631 10.1226 20.016 13.5066 21.75ZM13.5066 21.75L14.1296 7.57947M12.9701 11.5105L5.21207 6.07647M7.59007 7.63147V6.31147L4.95557 4.04297L5.21107 6.07697" stroke="#5BA045" stroke-linecap="round" stroke-linejoin="round"/>
  <path d="M7.59008 7.6315L5.92008 8.0785L2.87158 6.4205L5.21158 6.077M15.4616 12.919L11.2176 4.1505L11.9856 
  2.25L13.1796 5.5145L12.5366 6.667" stroke="#FF5A34" stroke-width="0.5" stroke-linecap="round" stroke-linejoin="round"/>
  <path d="M12.5363 6.66705L10.8603 6.24405L9.00635 3.31055L11.2173 4.15055" stroke="#FF5A34" stroke-width="0.5"
  stroke-linecap="round" stroke-linejoin="round"/>
</svg>